<svg width="74" height="47" viewBox="0 0 74 47" fill="none" xmlns="http://www.w3.org/2000/svg">
<path d="M44.9286 7.83332C44.9286 7.14081 45.207 6.47666 45.7026 5.98699C46.1983 5.49731 46.8705 5.22221 47.5714 5.22221H68.7143C69.4152 5.22221 70.0874 5.49731 70.5831 5.98699C71.0787 6.47666 71.3571 7.14081 71.3571 7.83332C71.3571 8.52583 71.0787 9.18997 70.5831 9.67965C70.0874 10.1693 69.4152 10.4444 68.7143 10.4444H47.5714C46.8705 10.4444 46.1983 10.1693 45.7026 9.67965C45.207 9.18997 44.9286 8.52583 44.9286 7.83332ZM74 31.3333C74 32.0258 73.7216 32.6899 73.2259 33.1796C72.7303 33.6693 72.0581 33.9444 71.3571 33.9444H47.9018C48.493 36.1844 49.8186 38.168 51.6713 39.5851C53.5241 41.0023 55.7997 41.7733 58.1429 41.7777C59.5316 41.7844 60.9076 41.5164 62.1899 40.9894C63.4721 40.4625 64.6346 39.6874 65.6089 38.7096C66.1044 38.2213 66.7756 37.9471 67.4754 37.9471C68.1753 37.9471 68.8465 38.2213 69.342 38.7096C69.5907 38.9498 69.7883 39.2366 69.9233 39.5533C70.0582 39.87 70.1277 40.2101 70.1277 40.5537C70.1277 40.8973 70.0582 41.2375 69.9233 41.5542C69.7883 41.8708 69.5907 42.1577 69.342 42.3978C67.8788 43.8622 66.1347 45.0235 64.2117 45.8137C62.2887 46.6039 60.2255 47.0072 58.1429 46.9999C55.0066 46.9999 51.9408 46.0811 49.3331 44.3596C46.7254 42.6381 44.693 40.1913 43.4928 37.3286C42.2926 34.4659 41.9786 31.3159 42.5904 28.2769C43.2023 25.2378 44.7125 22.4463 46.9302 20.2553C49.1478 18.0643 51.9733 16.5722 55.0493 15.9677C58.1253 15.3632 61.3136 15.6734 64.2111 16.8592C67.1086 18.045 69.5852 20.053 71.3276 22.6294C73.07 25.2057 74 28.2347 74 31.3333V31.3333ZM68.3839 28.7222C67.8017 26.4755 66.4792 24.4842 64.625 23.0622C62.7707 21.6402 60.4902 20.8684 58.1429 20.8684C55.7955 20.8684 53.515 21.6402 51.6607 23.0622C49.8065 24.4842 48.484 26.4755 47.9018 28.7222H68.3839ZM38.3214 33.2916C38.3214 36.9273 36.8596 40.414 34.2575 42.9848C31.6555 45.5556 28.1263 46.9999 24.4464 46.9999H2.64286C1.94193 46.9999 1.26971 46.7248 0.774075 46.2351C0.278443 45.7455 0 45.0813 0 44.3888V2.61111C0 1.9186 0.278443 1.25445 0.774075 0.764776C1.26971 0.275098 1.94193 0 2.64286 0H20.4821C22.9028 0.00335277 25.2708 0.698059 27.301 2.00044C29.3312 3.30283 30.937 5.15735 31.9249 7.34062C32.9129 9.5239 33.2409 11.9428 32.8694 14.306C32.498 16.6692 31.4429 18.876 29.8313 20.6604C32.3472 21.7071 34.4947 23.4638 36.0049 25.7107C37.5151 27.9575 38.3209 30.5945 38.3214 33.2916V33.2916ZM5.28571 19.5833H20.4821C22.4097 19.5833 24.2583 18.8268 25.6213 17.4802C26.9843 16.1336 27.75 14.3072 27.75 12.4028C27.75 10.4984 26.9843 8.67196 25.6213 7.32534C24.2583 5.97873 22.4097 5.22221 20.4821 5.22221H5.28571V19.5833ZM33.0357 33.2916C33.027 31.0436 32.1193 28.8901 30.5104 27.3005C28.9014 25.7109 26.7218 24.8141 24.4464 24.8055H5.28571V41.7777H24.4464C26.7218 41.7691 28.9014 40.8723 30.5104 39.2827C32.1193 37.6931 33.027 35.5396 33.0357 33.2916Z" fill="#0F0A2E"/>
</svg>
