<svg width="70" height="70" viewBox="0 0 70 70" fill="none" xmlns="http://www.w3.org/2000/svg">
<path d="M18.9583 58.3334C14.5347 58.3334 10.7557 56.8022 7.62121 53.7397C4.48482 50.6772 2.91663 46.9341 2.91663 42.5105C2.91663 38.7188 4.05899 35.3404 6.34371 32.3751C8.62843 29.4098 11.618 27.514 15.3125 26.6876C16.4305 22.7501 18.5091 19.4445 21.5483 16.7709C24.5855 14.0973 28.0972 12.4688 32.0833 11.8855V35.4376L27.4166 30.9168L23.3333 35.0001L35 46.6667L46.6666 35.0001L42.5833 30.9168L37.9166 35.4376V11.8855C42.9236 12.5661 47.0925 14.8138 50.4233 18.6288C53.7522 22.4458 55.4166 26.9306 55.4166 32.0834C58.7708 32.4723 61.5543 33.918 63.767 36.4205C65.9779 38.9249 67.0833 41.8542 67.0833 45.2084C67.0833 48.8542 65.8077 51.9537 63.2566 54.5067C60.7036 57.0579 57.6041 58.3334 53.9583 58.3334H18.9583Z" fill="#0F0A2E"/>
</svg>
