<svg width="54" height="54" viewBox="0 0 54 54" fill="none" xmlns="http://www.w3.org/2000/svg">
<path fill-rule="evenodd" clip-rule="evenodd" d="M27 0C12.0938 0 0 12.0938 0 27C0 41.9062 12.0938 54 27 54C41.877 54 54 41.9062 54 27C54 12.0938 41.877 0 27 0ZM44.8335 12.4447C48.1578 16.4933 49.9974 21.557 50.0467 26.7952C49.2863 26.649 41.6722 25.0965 33.9997 26.064C33.822 25.6815 33.6758 25.272 33.5003 24.8625C33.0231 23.7362 32.5159 22.6228 31.9792 21.5235C40.4707 18.0675 44.3363 13.0905 44.8335 12.4447ZM27 3.98475C32.8568 3.98475 38.2163 6.1785 42.2865 9.78075C41.877 10.3658 38.3918 15.0233 30.1927 18.0968C26.4128 11.1578 22.2278 5.47425 21.582 4.59675C23.358 4.18205 25.1763 3.97591 27 3.9825V3.98475ZM17.19 6.14925C17.8042 6.9705 21.9037 12.681 25.74 19.4737C14.9625 22.3447 5.445 22.2862 4.42125 22.2862C5.91525 15.1402 10.7483 9.19575 17.19 6.14925ZM3.924 27.0292V26.3273C4.92075 26.3565 16.1055 26.5028 27.6165 23.0467C28.2892 24.336 28.9035 25.6523 29.4885 26.9708C29.196 27.0585 28.8743 27.1462 28.5818 27.234C16.6928 31.0702 10.3658 41.553 9.83925 42.4327C6.03093 38.2062 3.92355 32.7185 3.924 27.0292ZM27 50.076C21.8745 50.0841 16.8944 48.3728 12.8565 45.216C13.266 44.3655 17.9505 35.3452 30.9533 30.807C31.0117 30.7778 31.0432 30.7778 31.0995 30.7485C34.3507 39.1523 35.667 46.2105 36.0203 48.231C33.237 49.4325 30.1928 50.076 27 50.076ZM39.8565 46.1227C39.6225 44.7165 38.3918 37.9823 35.3745 29.6932C42.6082 28.5525 48.933 30.4268 49.725 30.69C48.7283 37.1025 45.0382 42.6375 39.8565 46.1227Z" fill="#0F0A2E"/>
</svg>
