<svg width="60" height="60" viewBox="0 0 60 60" fill="none" xmlns="http://www.w3.org/2000/svg">
<path d="M52.75 0.75C54.4739 0.75 56.1272 1.43482 57.3462 2.65381C58.5652 3.87279 59.25 5.52609 59.25 7.25V52.75C59.25 54.4739 58.5652 56.1272 57.3462 57.3462C56.1272 58.5652 54.4739 59.25 52.75 59.25H7.25C5.52609 59.25 3.87279 58.5652 2.65381 57.3462C1.43482 56.1272 0.75 54.4739 0.75 52.75V7.25C0.75 5.52609 1.43482 3.87279 2.65381 2.65381C3.87279 1.43482 5.52609 0.75 7.25 0.75H52.75ZM51.125 51.125V33.9C51.125 31.09 50.0087 28.3952 48.0218 26.4082C46.0348 24.4213 43.34 23.305 40.53 23.305C37.7675 23.305 34.55 24.995 32.99 27.53V23.9225H23.9225V51.125H32.99V35.1025C32.99 32.6 35.005 30.5525 37.5075 30.5525C38.7142 30.5525 39.8715 31.0319 40.7248 31.8852C41.5781 32.7385 42.0575 33.8958 42.0575 35.1025V51.125H51.125ZM13.36 18.82C14.8081 18.82 16.1969 18.2448 17.2208 17.2208C18.2448 16.1969 18.82 14.8081 18.82 13.36C18.82 10.3375 16.3825 7.8675 13.36 7.8675C11.9033 7.8675 10.5063 8.44617 9.47622 9.47622C8.44617 10.5063 7.8675 11.9033 7.8675 13.36C7.8675 16.3825 10.3375 18.82 13.36 18.82M17.8775 51.125V23.9225H8.875V51.125H17.8775V51.125Z" fill="#0F0A2E"/>
</svg>
