<svg width="261" height="470" viewBox="0 0 261 470" fill="none" xmlns="http://www.w3.org/2000/svg">
<g filter="url(#filter0_b_203_659)">
<path d="M2.22988 265.725C5.15276 262.988 39.4625 247.633 70.13 236.088L131.037 470L2.22988 279.114C-0.793163 273.833 -0.693002 268.441 2.22988 265.725Z" fill="#4A2C9F"/>
<path d="M258.788 265.725C255.889 262.988 221.861 247.633 191.445 236.088L131.037 470L258.788 279.114C261.787 273.833 261.687 268.441 258.788 265.725Z" fill="#4A2C9F"/>
<path d="M70.9975 235C70.9975 235 42.0788 237.791 40.1847 241.866C35.3906 252.392 70.9975 284.172 70.6621 290.016C70.4084 293.505 56.298 302.403 57.313 308.156C59.2252 318.794 131.037 470 131.037 470L131.037 456.855L70.9975 235Z" fill="#7864F3"/>
<path d="M191.076 235C191.076 235 219.995 237.791 221.889 241.866C226.683 252.392 191.076 284.172 191.412 290.016C191.665 293.505 205.776 302.403 204.761 308.156C202.849 318.794 131.037 470 131.037 470L131.037 456.855L191.076 235Z" fill="#7864F3"/>
<path d="M131.037 353.588C134.003 353.588 136.407 351.153 136.407 348.148C136.407 345.144 134.003 342.708 131.037 342.708C128.071 342.708 125.667 345.144 125.667 348.148C125.667 351.153 128.071 353.588 131.037 353.588Z" fill="#7864F3"/>
<path d="M131.037 312.245C134.003 312.245 136.407 309.81 136.407 306.806C136.407 303.801 134.003 301.366 131.037 301.366C128.071 301.366 125.667 303.801 125.667 306.806C125.667 309.81 128.071 312.245 131.037 312.245Z" fill="#7864F3"/>
<path d="M131.037 271.991C134.003 271.991 136.407 269.555 136.407 266.551C136.407 263.547 134.003 261.111 131.037 261.111C128.071 261.111 125.667 263.547 125.667 266.551C125.667 269.555 128.071 271.991 131.037 271.991Z" fill="#7864F3"/>
<path d="M131.037 240.44C134.003 240.44 136.407 237.761 136.407 234.456C136.407 231.151 134.003 228.472 131.037 228.472C128.071 228.472 125.667 231.151 125.667 234.456C125.667 237.761 128.071 240.44 131.037 240.44Z" fill="#7864F3"/>
<path d="M134.259 227.742C139.39 227.742 139.39 240.734 134.259 240.734C141.257 244.884 148.146 248.703 153.917 249.144C159.615 238.126 158.795 228.027 153.917 218.681C148.182 218.91 141.518 222.234 134.259 227.742Z" fill="#7864F3"/>
<path d="M127.815 227.742C122.684 227.742 122.684 240.734 127.815 240.734C120.818 244.884 113.929 248.703 108.158 249.144C102.459 238.08 103.279 228.027 108.158 218.681C113.892 218.901 120.556 222.234 127.815 227.742Z" fill="#7864F3"/>
<path d="M165.698 92.4869C156.363 92.5423 147.366 95.4143 138.209 96.5594C134.363 97.0747 130.468 97.1244 126.61 96.7072C121.52 96.1161 116.589 94.5462 111.498 93.8444C106.959 93.1064 102.376 92.6653 97.7772 92.5238C89.7754 92.4776 82.0366 94.9433 74.2039 96.2731C74.2039 98.5264 73.7343 101.426 74.9082 103.005C76.0822 104.584 78.1578 106.136 78.6649 108.352C79.9253 113.626 81.7056 118.766 83.9807 123.7C85.1577 126.017 87.1116 127.863 89.5124 128.927C95.1475 131.698 101.778 132.104 107.939 131.236C116.72 129.989 121.482 123.516 125.107 116.119C126.469 113.108 126.619 109.654 128.413 106.884C129.474 105.249 131.944 105.96 133.71 105.96C135.476 105.96 136.969 108.842 137.523 110.762C139.458 117.559 142.689 124.771 149.112 128.308C158.711 133.628 173.822 132.639 180.049 123.045C182.481 119.286 183.158 114.733 184.379 110.476C185.121 107.89 185.787 104.797 188.436 103.375C189.506 102.802 188.755 100.512 188.915 99.1821C189.074 97.8523 189.413 96.4116 187.309 96.1623C183.646 95.6636 180.096 94.1491 176.349 93.632C172.798 93.1518 169.314 92.45 165.689 92.4777L165.698 92.4869ZM103.985 94.8972C106.624 94.8554 109.259 95.0938 111.846 95.6082C127.192 98.8034 127.502 105.018 121.191 117.873C116.044 128.345 105.375 130.968 94.6309 128.456C92.2938 127.915 90.1436 126.776 88.3986 125.154C86.6536 123.532 85.3757 121.485 84.6944 119.221C83.0133 114.309 81.736 109.063 82.0272 103.929C82.4122 97.0119 90.367 96.0423 96.0584 95.4051C98.6897 95.0955 101.335 94.9198 103.985 94.8787V94.8972ZM160.016 94.8972C162.666 94.9383 165.312 95.114 167.943 95.4235C173.634 96.0607 181.589 97.0304 181.974 103.947C182.265 109.109 181.035 114.327 179.307 119.24C178.626 121.504 177.348 123.55 175.603 125.172C173.858 126.794 171.708 127.933 169.371 128.475C158.626 130.986 147.957 128.364 142.811 117.892C136.499 105.037 136.809 98.8219 152.155 95.6267C154.742 95.1123 157.378 94.8738 160.016 94.9156V94.8972Z" fill="#7864F3"/>
<path d="M171.091 29.0985C177.424 -15.6364 92.5096 -4.26573 77.4029 32.6242C76.1003 35.4554 76.5707 38.4088 79.2663 41.5071C71.2698 46.9483 72.2558 53.8012 75.1505 60.2192C74.8881 69.3234 73.6127 80.4728 74.2459 92.4769C75.1505 90.1035 77.4029 74.9248 81.9078 68.255C86.4127 61.5852 93.0162 44.697 96.6707 45.9256C99.095 46.7422 130.032 41.7284 137.911 39.8206C158.491 34.8373 167.166 45.6051 175.542 53.0762C184.968 61.4707 185.067 84.8074 186.506 89.1954C189.627 98.7269 189.084 40.0419 171.091 29.0985Z" fill="#7864F3"/>
<path d="M177.719 161.526C183.418 151.248 190.154 133.362 188.88 118.588C185.883 142.711 180.608 168.601 135.6 193.931C133.103 195.277 130.612 195.141 128.116 193.931C92.1206 172.364 81.8836 158.399 74.4202 118.588C72.4017 125.531 80.6911 152.856 87.0718 164.537C93.4526 176.217 127.106 200.294 130.848 201.251C134.59 202.208 172.019 171.805 177.719 161.526Z" fill="#7864F3"/>
<path d="M113.065 150.004C112.731 150.004 112.521 152.157 112.09 153.403C110.496 151.635 110.603 150.461 110.652 148.147L112.72 146.596L117.824 144.647C122.386 142.055 127.824 141.708 132.587 144.315C137.135 142.053 141.48 142.118 147.825 144.647L150.929 146.402C152.315 148.063 152.675 148.93 152.462 151.021L150.791 153.403L148.239 150.004C142.004 148.403 136.445 149.81 132.587 146.92C128.88 149.666 113.399 150.004 113.065 150.004Z" fill="#7864F3"/>
</g>
<defs>
<filter id="filter0_b_203_659" x="-126" y="-126" width="513" height="722" filterUnits="userSpaceOnUse" color-interpolation-filters="sRGB">
<feFlood flood-opacity="0" result="BackgroundImageFix"/>
<feGaussianBlur in="BackgroundImageFix" stdDeviation="63"/>
<feComposite in2="SourceAlpha" operator="in" result="effect1_backgroundBlur_203_659"/>
<feBlend mode="normal" in="SourceGraphic" in2="effect1_backgroundBlur_203_659" result="shape"/>
</filter>
</defs>
</svg>
