<svg width="729" height="343" viewBox="0 0 729 343" fill="none" xmlns="http://www.w3.org/2000/svg">
<g filter="url(#filter0_b_221_803)">
<path d="M100.422 192.945C100.422 190.169 100.422 187.233 100.422 184.137C100.422 180.934 100.529 177.624 100.742 174.207C97.112 175.382 93.1615 176.289 88.8906 176.93C84.7266 177.57 80.349 177.891 75.7578 177.891C63.0521 177.891 51.9479 175.809 42.4453 171.645C33.0495 167.48 25.2018 161.928 18.9023 154.988C12.6029 147.941 7.85156 139.827 4.64844 130.645C1.55208 121.462 0.00390625 111.799 0.00390625 101.656C0.00390625 91.1927 1.55208 81.4766 4.64844 72.5078C7.74479 63.4323 11.9622 55.1576 17.3008 47.6836C22.7461 40.2096 29.1523 33.5898 36.5195 27.8242C43.9935 21.9518 52.0013 17.0404 60.543 13.0898C69.0846 9.03255 78 5.98958 87.2891 3.96094C96.6849 1.82552 106.081 0.757812 115.477 0.757812C132.133 0.757812 147.241 3.32031 160.801 8.44531C174.361 13.5703 185.945 21.0977 195.555 31.0273C205.164 40.8503 212.585 53.0221 217.816 67.543C223.048 81.957 225.664 98.5065 225.664 117.191C225.664 125.52 225.023 134.755 223.742 144.898C222.568 155.042 220.646 165.292 217.977 175.648C215.307 186.005 211.837 196.095 207.566 205.918C203.296 215.634 198.064 224.336 191.871 232.023C185.785 239.604 178.738 245.69 170.73 250.281C162.723 254.872 153.594 257.168 143.344 257.168C136.617 257.168 130.424 256.047 124.766 253.805C119.107 251.562 113.822 249.32 108.91 247.078C106.775 251.669 103.732 255.246 99.7812 257.809C95.8307 260.478 91.2396 261.812 86.0078 261.812C84.4062 261.812 82.5911 261.546 80.5625 261.012C78.6406 260.478 76.8255 259.677 75.1172 258.609C73.4089 257.542 71.9674 256.154 70.793 254.445C69.7253 252.844 69.1914 250.922 69.1914 248.68C69.1914 246.438 69.7253 244.516 70.793 242.914C71.8607 241.206 73.2487 239.818 74.957 238.75C76.7721 237.576 78.8008 236.721 81.043 236.188C83.3919 235.547 85.7943 235.227 88.25 235.227C90.599 235.227 92.8945 235.44 95.1367 235.867C97.3789 236.188 99.6745 236.615 102.023 237.148V234.266C102.023 228.927 101.757 222.895 101.223 216.168C100.689 209.335 100.422 201.594 100.422 192.945ZM116.758 112.547C114.943 120.234 113.555 128.723 112.594 138.012C111.74 147.194 111.046 156.323 110.512 165.398C114.996 164.01 118.733 162.569 121.723 161.074C124.712 159.473 127.435 157.818 129.891 156.109L130.852 157.871C128.93 159.686 126.26 161.768 122.844 164.117C119.427 166.359 115.316 168.548 110.512 170.684C110.298 174.634 110.191 178.424 110.191 182.055C110.191 185.578 110.191 188.995 110.191 192.305C110.191 196.896 110.245 200.953 110.352 204.477C110.565 208 110.779 211.257 110.992 214.246C111.206 217.236 111.366 220.118 111.473 222.895C111.686 225.671 111.793 228.553 111.793 231.543C111.793 233.038 111.74 234.479 111.633 235.867C111.526 237.148 111.366 238.376 111.152 239.551C116.491 241.366 121.723 243.128 126.848 244.836C132.079 246.544 137.578 247.398 143.344 247.398C152.846 247.398 161.228 245.69 168.488 242.273C175.749 238.75 182.048 234.052 187.387 228.18C192.725 222.201 197.156 215.314 200.68 207.52C204.203 199.618 207.033 191.344 209.168 182.695C211.303 173.94 212.798 165.025 213.652 155.949C214.613 146.874 215.094 138.118 215.094 129.684C215.094 112.6 212.852 96.7448 208.367 82.1172C203.883 67.3828 197.263 54.6237 188.508 43.8398C179.753 33.056 168.969 24.6211 156.156 18.5352C143.344 12.3424 128.556 9.24609 111.793 9.24609C95.9909 9.24609 81.6836 11.3281 68.8711 15.4922C56.1654 19.6562 45.2747 25.7422 36.1992 33.75C27.2305 41.651 20.2904 51.4206 15.3789 63.0586C10.5742 74.6966 8.17188 88.043 8.17188 103.098C8.17188 112.387 10.0404 121.089 13.7773 129.203C17.6211 137.318 22.6927 144.365 28.9922 150.344C35.2917 156.323 42.4987 161.021 50.6133 164.438C58.7279 167.854 67.1094 169.562 75.7578 169.562C85.7943 169.562 94.1224 168.922 100.742 167.641C101.276 160.06 101.97 151.999 102.824 143.457C103.785 134.809 105.28 125.626 107.309 115.91C107.522 114.522 107.736 113.081 107.949 111.586C108.163 110.091 108.27 109.237 108.27 109.023C108.27 107.956 108.216 106.888 108.109 105.82C108.109 104.646 108.59 104.059 109.551 104.059C110.085 104.059 110.779 104.379 111.633 105.02C112.487 105.66 113.288 106.461 114.035 107.422C114.783 108.276 115.423 109.184 115.957 110.145C116.491 111.105 116.758 111.906 116.758 112.547ZM87.9297 254.285C92.3073 254.285 95.457 253.217 97.3789 251.082C99.4076 248.947 100.742 246.384 101.383 243.395C99.0339 242.54 96.7917 241.846 94.6562 241.312C92.6276 240.779 90.599 240.512 88.5703 240.512C85.474 240.512 82.6445 241.046 80.082 242.113C77.6263 243.181 76.3984 244.943 76.3984 247.398C76.3984 249.534 77.5195 251.189 79.7617 252.363C82.1107 253.645 84.8333 254.285 87.9297 254.285Z" fill="#21AE95"/>
<path d="M242.16 182.375C243.014 182.375 243.815 182.642 244.562 183.176C245.417 183.603 246.111 184.083 246.645 184.617C247.285 185.151 247.766 185.738 248.086 186.379C248.513 186.913 248.727 187.233 248.727 187.34C248.727 187.447 248.566 188.034 248.246 189.102C248.033 190.062 247.712 191.717 247.285 194.066C246.965 196.415 246.645 199.512 246.324 203.355C246.111 207.092 246.004 211.79 246.004 217.449C246.004 225.03 246.911 230.315 248.727 233.305C250.648 236.294 252.944 237.789 255.613 237.789C258.283 237.789 260.898 236.988 263.461 235.387C266.13 233.785 268.639 231.703 270.988 229.141C273.337 226.578 275.526 223.695 277.555 220.492C279.69 217.182 281.559 213.872 283.16 210.562L284.121 211.203C283.694 212.271 283.053 213.926 282.199 216.168C281.345 218.303 280.277 220.652 278.996 223.215C277.715 225.777 276.167 228.447 274.352 231.223C272.643 233.892 270.615 236.348 268.266 238.59C266.023 240.725 263.514 242.54 260.738 244.035C258.069 245.423 255.133 246.117 251.93 246.117C249.688 246.117 247.605 245.69 245.684 244.836C243.868 243.982 242.214 242.434 240.719 240.191C239.331 237.842 238.21 234.639 237.355 230.582C236.608 226.525 236.234 221.293 236.234 214.887C236.234 211.577 236.341 208.053 236.555 204.316C236.875 200.473 237.249 196.949 237.676 193.746C238.21 190.436 238.85 187.714 239.598 185.578C240.345 183.443 241.199 182.375 242.16 182.375ZM246.004 142.656C248.673 142.656 250.595 143.617 251.77 145.539C252.944 147.354 253.531 149.596 253.531 152.266C253.531 155.362 252.677 157.764 250.969 159.473C249.26 161.181 247.178 162.035 244.723 162.035C242.908 162.035 241.146 161.341 239.438 159.953C237.729 158.565 236.875 156.323 236.875 153.227C236.875 149.81 237.729 147.194 239.438 145.379C241.146 143.564 243.335 142.656 246.004 142.656Z" fill="#21AE95"/>
<path d="M337.453 214.246C337.24 214.993 336.385 217.022 334.891 220.332C333.503 223.535 331.527 227.005 328.965 230.742C326.509 234.372 323.52 237.682 319.996 240.672C316.579 243.555 312.682 244.996 308.305 244.996C302.646 244.996 297.521 242.861 292.93 238.59C288.339 234.212 284.388 228.073 281.078 220.172C277.875 212.164 275.366 202.501 273.551 191.184C271.842 179.866 270.988 167.214 270.988 153.227C270.988 145.539 271.255 137.478 271.789 129.043C272.323 120.501 273.177 112.12 274.352 103.898C275.526 95.6771 276.967 87.8294 278.676 80.3555C280.491 72.8815 282.626 66.3151 285.082 60.6562C287.538 54.9974 290.367 50.513 293.57 47.2031C296.88 43.7865 300.51 42.0781 304.461 42.0781C310.333 42.0781 314.604 45.6549 317.273 52.8086C320.049 59.9622 321.438 71.013 321.438 85.9609C321.438 94.7161 320.797 104.539 319.516 115.43C318.234 126.214 316.046 137.264 312.949 148.582C308.892 162.889 304.621 175.115 300.137 185.258C295.759 195.294 292.022 203.302 288.926 209.281C290.1 213.445 291.382 217.236 292.77 220.652C294.264 224.069 295.919 227.059 297.734 229.621C299.549 232.077 301.525 233.999 303.66 235.387C305.796 236.775 308.145 237.469 310.707 237.469C313.91 237.469 316.9 236.508 319.676 234.586C322.452 232.664 324.908 230.422 327.043 227.859C329.285 225.297 331.207 222.681 332.809 220.012C334.41 217.342 335.638 215.207 336.492 213.605L337.453 214.246ZM280.758 142.016C280.758 146.5 280.865 151.358 281.078 156.59C281.398 161.715 281.826 166.947 282.359 172.285C282.893 177.624 283.534 182.962 284.281 188.301C285.135 193.639 286.15 198.764 287.324 203.676C289.566 198.978 292.182 192.945 295.172 185.578C298.268 178.211 301.204 169.936 303.98 160.754C306.863 151.465 309.266 141.428 311.188 130.645C313.216 119.861 314.23 108.703 314.23 97.1719C314.23 89.9115 313.91 83.2917 313.27 77.3125C312.736 71.2266 311.882 66.0482 310.707 61.7773C309.533 57.3997 308.038 54.0365 306.223 51.6875C304.514 49.2318 302.486 48.0039 300.137 48.0039C297.895 48.0039 295.866 49.6055 294.051 52.8086C292.236 55.9049 290.581 60.0156 289.086 65.1406C287.698 70.2656 286.47 76.138 285.402 82.7578C284.335 89.3776 283.427 96.1576 282.68 103.098C282.039 110.038 281.559 116.924 281.238 123.758C280.918 130.484 280.758 136.57 280.758 142.016Z" fill="#21AE95"/>
<path d="M327.363 229.621C330.993 223.855 334.25 217.983 337.133 212.004C340.016 205.918 342.418 199.992 344.34 194.227C341.777 190.596 339.589 186.913 337.773 183.176C336.065 179.332 335.211 175.382 335.211 171.324C335.211 167.374 335.585 163.797 336.332 160.594C337.079 157.391 338.094 154.668 339.375 152.426C340.656 150.184 342.098 148.475 343.699 147.301C345.301 146.02 346.956 145.379 348.664 145.379C351.013 145.379 352.882 146.553 354.27 148.902C355.764 151.251 356.405 154.241 356.191 157.871C355.978 162.142 355.391 166.733 354.43 171.645C353.576 176.556 352.294 181.574 350.586 186.699C352.721 189.155 354.91 191.611 357.152 194.066C359.501 196.415 361.583 198.871 363.398 201.434C365.32 203.996 366.868 206.772 368.043 209.762C369.324 212.645 369.965 215.794 369.965 219.211C369.965 223.909 369.057 228.233 367.242 232.184C365.534 236.134 363.452 239.551 360.996 242.434C358.54 245.316 355.978 247.559 353.309 249.16C350.639 250.762 348.344 251.562 346.422 251.562C343.112 251.562 340.549 250.708 338.734 249C337.026 247.292 336.172 245.423 336.172 243.395C336.172 241.793 336.439 240.191 336.973 238.59C337.507 236.988 338.094 235.547 338.734 234.266C339.482 232.878 340.176 231.757 340.816 230.902C341.564 230.048 342.098 229.621 342.418 229.621C342.952 229.621 343.272 229.835 343.379 230.262C343.592 230.582 343.699 230.902 343.699 231.223C343.699 231.757 343.646 232.504 343.539 233.465C343.432 234.426 343.379 235.227 343.379 235.867C343.379 237.682 343.966 239.177 345.141 240.352C346.422 241.526 348.451 242.113 351.227 242.113C352.401 242.113 353.736 241.846 355.23 241.312C356.725 240.779 358.167 239.924 359.555 238.75C360.943 237.576 362.064 236.134 362.918 234.426C363.879 232.611 364.359 230.475 364.359 228.02C364.359 225.777 363.826 223.428 362.758 220.973C361.69 218.517 360.302 216.008 358.594 213.445C356.885 210.883 354.964 208.267 352.828 205.598C350.799 202.928 348.771 200.206 346.742 197.43C344.286 203.516 341.564 209.441 338.574 215.207C335.691 220.866 332.595 226.098 329.285 230.902L327.363 229.621ZM339.535 162.996C339.535 167.053 340.283 170.684 341.777 173.887C343.272 176.983 345.247 180.026 347.703 183.016C348.557 179.706 349.145 176.556 349.465 173.566C349.785 170.47 349.945 167.534 349.945 164.758C349.945 157.284 348.29 153.547 344.98 153.547C344.02 153.547 342.845 154.294 341.457 155.789C340.176 157.177 339.535 159.579 339.535 162.996Z" fill="#21AE95"/>
<path d="M388.703 224.656C388.703 221.88 388.863 217.396 389.184 211.203C389.504 204.904 389.878 196.949 390.305 187.34C390.732 177.73 391.105 166.52 391.426 153.707C391.746 140.895 391.906 126.534 391.906 110.625C391.906 102.831 391.853 95.3568 391.746 88.2031C391.746 80.9427 391.693 74.5365 391.586 68.9844C391.479 63.3255 391.372 58.7878 391.266 55.3711C391.266 51.8477 391.266 49.9258 391.266 49.6055C391.266 48.7513 391.372 48.0039 391.586 47.3633C391.906 46.7227 392.493 46.1354 393.348 45.6016C393.988 45.2812 394.736 44.8542 395.59 44.3203C396.551 43.6797 397.512 43.3594 398.473 43.3594C399.647 43.3594 400.555 43.6797 401.195 44.3203C401.836 44.8542 402.316 45.8685 402.637 47.3633C403.064 48.7513 403.384 51.207 403.598 54.7305C403.811 58.1471 403.918 62.9518 403.918 69.1445C404.025 75.2305 404.078 83.1315 404.078 92.8477C404.078 101.816 403.865 111.105 403.438 120.715C403.01 130.324 402.477 139.773 401.836 149.062C401.302 158.352 400.661 167.267 399.914 175.809C399.273 184.35 398.633 192.038 397.992 198.871C397.458 205.704 396.978 211.417 396.551 216.008C396.124 220.492 395.91 223.375 395.91 224.656C395.91 225.19 395.91 225.831 395.91 226.578C395.91 227.326 395.964 228.073 396.07 228.82C396.177 229.461 396.337 230.048 396.551 230.582C396.764 231.009 397.085 231.223 397.512 231.223C398.579 231.223 399.701 229.514 400.875 226.098C402.049 222.681 403.544 218.09 405.359 212.324C406.534 208.694 407.868 205.01 409.363 201.273C410.858 197.536 412.406 194.173 414.008 191.184C415.716 188.087 417.424 185.578 419.133 183.656C420.948 181.734 422.71 180.773 424.418 180.773C425.699 180.773 426.767 181.147 427.621 181.895C428.582 182.642 429.383 183.603 430.023 184.777C430.664 185.845 431.145 187.02 431.465 188.301C431.785 189.582 432.052 190.81 432.266 191.984C432.372 193.266 432.533 195.188 432.746 197.75C432.96 200.312 433.173 203.249 433.387 206.559C433.6 209.868 433.814 213.339 434.027 216.969C434.348 220.599 434.668 224.069 434.988 227.379C435.522 233.358 436.964 237.682 439.312 240.352C441.661 243.021 444.704 244.355 448.441 244.355C449.936 244.355 451.111 244.249 451.965 244.035C452.819 243.822 453.62 243.715 454.367 243.715C454.901 243.715 455.008 244.249 454.688 245.316C454.474 245.743 453.566 246.491 451.965 247.559C450.363 248.52 447.534 249 443.477 249C440.06 249 437.177 248.466 434.828 247.398C432.586 246.224 430.771 244.462 429.383 242.113C428.102 239.658 427.087 236.508 426.34 232.664C425.699 228.714 425.272 224.016 425.059 218.57C424.845 215.474 424.632 212.271 424.418 208.961C424.311 205.544 424.044 202.448 423.617 199.672C423.297 196.896 422.816 194.654 422.176 192.945C421.535 191.13 420.628 190.223 419.453 190.223C418.492 190.223 417.424 191.344 416.25 193.586C415.076 195.721 413.901 198.284 412.727 201.273C411.659 204.156 410.645 207.092 409.684 210.082C408.723 212.965 407.975 215.207 407.441 216.809C407.014 218.09 406.374 220.225 405.52 223.215C404.665 226.204 403.651 229.247 402.477 232.344C401.302 235.44 400.021 238.163 398.633 240.512C397.245 242.861 395.803 244.035 394.309 244.035C393.027 244.035 392.013 243.341 391.266 241.953C390.518 240.458 389.931 238.697 389.504 236.668C389.184 234.533 388.97 232.397 388.863 230.262C388.757 228.02 388.703 226.151 388.703 224.656Z" fill="#21AE95"/>
<path d="M511.062 193.586C510.102 193.586 509.194 193.052 508.34 191.984C507.592 190.81 506.578 189.582 505.297 188.301C504.016 187.02 502.361 185.845 500.332 184.777C498.41 183.603 495.848 183.016 492.645 183.016C488.16 183.016 483.996 184.19 480.152 186.539C476.309 188.781 472.999 191.664 470.223 195.188C467.447 198.604 465.258 202.395 463.656 206.559C462.161 210.616 461.414 214.46 461.414 218.09C461.414 223.749 462.855 228.393 465.738 232.023C468.621 235.654 472.465 237.469 477.27 237.469C481.007 237.469 484.263 236.775 487.039 235.387C489.922 233.892 492.324 231.97 494.246 229.621C493.605 226.738 493.285 223.161 493.285 218.891C493.285 214.299 493.605 210.562 494.246 207.68C494.993 204.797 495.848 202.555 496.809 200.953C497.876 199.352 498.944 198.284 500.012 197.75C501.079 197.109 501.987 196.789 502.734 196.789C503.589 196.789 504.549 197.376 505.617 198.551C506.792 199.725 507.379 201.807 507.379 204.797C507.379 208.534 506.685 212.484 505.297 216.648C504.016 220.706 502.201 224.603 499.852 228.34C501.133 231.65 503.108 234.052 505.777 235.547C508.447 237.042 511.49 237.789 514.906 237.789C517.896 237.789 520.672 237.148 523.234 235.867C525.904 234.479 528.359 232.664 530.602 230.422C532.951 228.18 535.139 225.617 537.168 222.734C539.197 219.745 541.065 216.702 542.773 213.605L543.734 214.246C542.453 218.303 540.745 222.254 538.609 226.098C536.474 229.941 534.018 233.358 531.242 236.348C528.466 239.337 525.423 241.74 522.113 243.555C518.91 245.263 515.547 246.117 512.023 246.117C509.354 246.117 506.418 245.263 503.215 243.555C500.118 241.74 497.556 238.536 495.527 233.945C492.217 237.896 488.427 241.206 484.156 243.875C479.885 246.438 475.294 247.719 470.383 247.719C467.607 247.719 465.098 247.078 462.855 245.797C460.613 244.516 458.691 242.807 457.09 240.672C455.595 238.536 454.421 236.027 453.566 233.145C452.712 230.262 452.285 227.219 452.285 224.016C452.285 218.57 453.46 213.125 455.809 207.68C458.264 202.234 461.467 197.323 465.418 192.945C469.475 188.568 474.066 185.044 479.191 182.375C484.423 179.599 489.868 178.211 495.527 178.211C499.691 178.211 503.161 178.691 505.938 179.652C508.82 180.507 511.116 181.574 512.824 182.855C514.533 184.03 515.76 185.258 516.508 186.539C517.255 187.82 517.629 188.835 517.629 189.582C517.629 191.077 516.828 192.145 515.227 192.785C513.732 193.319 512.344 193.586 511.062 193.586ZM497.609 214.887C497.609 218.41 497.93 221.453 498.57 224.016C500.172 221.026 501.346 217.983 502.094 214.887C502.841 211.684 503.215 208.961 503.215 206.719C503.215 204.049 502.734 202.715 501.773 202.715C500.812 202.715 499.852 203.889 498.891 206.238C498.036 208.587 497.609 211.47 497.609 214.887Z" fill="#21AE95"/>
<path d="M547.738 177.57C548.272 177.57 548.699 177.997 549.02 178.852C549.34 179.706 549.553 180.72 549.66 181.895C549.874 183.069 549.98 184.35 549.98 185.738C549.98 187.02 549.98 188.194 549.98 189.262C549.98 192.038 549.874 194.921 549.66 197.91C549.553 200.793 549.393 203.622 549.18 206.398C549.073 209.068 548.966 211.577 548.859 213.926C548.753 216.168 548.699 218.036 548.699 219.531C548.699 222.307 548.806 224.549 549.02 226.258C549.233 227.859 549.767 228.66 550.621 228.66C551.155 228.66 551.849 227.966 552.703 226.578C553.557 225.19 554.465 223.535 555.426 221.613C556.493 219.585 557.508 217.449 558.469 215.207C559.43 212.965 560.337 210.99 561.191 209.281C562.259 207.039 563.434 204.583 564.715 201.914C566.103 199.138 567.544 196.576 569.039 194.227C570.534 191.771 572.082 189.742 573.684 188.141C575.392 186.539 577.154 185.738 578.969 185.738C580.143 185.738 581.158 186.059 582.012 186.699C582.973 187.34 583.773 188.194 584.414 189.262C585.055 190.223 585.535 191.29 585.855 192.465C586.283 193.533 586.603 194.547 586.816 195.508C587.137 197.964 587.457 201.861 587.777 207.199C588.204 212.431 588.738 218.036 589.379 224.016C589.913 229.995 591.354 234.372 593.703 237.148C596.052 239.818 599.095 241.152 602.832 241.152C604.327 241.152 605.501 241.046 606.355 240.832C607.316 240.618 608.117 240.512 608.758 240.512C609.292 240.512 609.398 241.046 609.078 242.113C608.971 242.327 608.704 242.647 608.277 243.074C607.957 243.395 607.37 243.768 606.516 244.195C605.661 244.622 604.487 244.996 602.992 245.316C601.604 245.637 599.896 245.797 597.867 245.797C594.451 245.797 591.621 245.263 589.379 244.195C587.137 243.021 585.322 241.206 583.934 238.75C582.546 236.294 581.531 233.145 580.891 229.301C580.25 225.35 579.823 220.652 579.609 215.207C579.396 212.645 579.182 210.189 578.969 207.84C578.862 205.384 578.595 203.249 578.168 201.434C577.848 199.512 577.367 198.017 576.727 196.949C576.086 195.775 575.178 195.188 574.004 195.188C573.043 195.188 571.868 196.148 570.48 198.07C569.199 199.992 567.918 202.288 566.637 204.957C565.355 207.52 564.128 210.189 562.953 212.965C561.885 215.741 560.978 217.93 560.23 219.531C557.882 224.549 555.906 228.66 554.305 231.863C552.81 235.066 551.155 238.163 549.34 241.152C548.806 242.007 548.219 242.701 547.578 243.234C547.044 243.768 546.35 244.035 545.496 244.035C544.215 244.035 543.201 242.967 542.453 240.832C541.706 238.697 541.118 236.241 540.691 233.465C540.371 230.689 540.158 227.913 540.051 225.137C539.944 222.254 539.891 220.065 539.891 218.57C539.891 216.862 539.891 214.78 539.891 212.324C539.997 209.868 540.104 207.466 540.211 205.117C540.318 202.768 540.371 200.633 540.371 198.711C540.478 196.789 540.531 195.508 540.531 194.867C540.531 194.227 540.478 193.372 540.371 192.305C540.371 191.13 540.371 190.009 540.371 188.941C540.371 187.767 540.318 186.753 540.211 185.898C540.211 184.938 540.211 184.297 540.211 183.977C540.211 183.122 540.424 182.428 540.852 181.895C541.385 181.254 541.919 180.773 542.453 180.453C542.987 180.133 543.841 179.599 545.016 178.852C546.19 177.997 547.098 177.57 547.738 177.57Z" fill="#21AE95"/>
<path d="M378.63 282.224V326H377.35V285.36L359.238 326H357.958L339.783 285.36V326H338.503V282.224H339.783L358.599 324.336L377.35 282.224H378.63Z" fill="#7864F3"/>
<path d="M387.902 308.72C387.902 305.093 388.606 301.957 390.014 299.312C391.422 296.624 393.406 294.576 395.966 293.168C398.526 291.717 401.449 290.992 404.734 290.992C408.702 290.992 412.052 292.037 414.783 294.128C417.556 296.176 419.412 298.8 420.35 302V291.44H421.566V326H420.35V315.44C419.412 318.64 417.556 321.285 414.783 323.376C412.052 325.424 408.702 326.448 404.734 326.448C401.449 326.448 398.526 325.744 395.966 324.336C393.406 322.885 391.422 320.837 390.014 318.192C388.606 315.504 387.902 312.347 387.902 308.72ZM420.35 308.72C420.35 305.435 419.668 302.555 418.302 300.08C416.98 297.563 415.124 295.621 412.734 294.256C410.388 292.848 407.721 292.144 404.734 292.144C401.577 292.144 398.825 292.805 396.479 294.128C394.175 295.451 392.383 297.371 391.103 299.888C389.823 302.363 389.182 305.307 389.182 308.72C389.182 312.133 389.823 315.099 391.103 317.616C392.383 320.091 394.175 321.989 396.479 323.312C398.825 324.635 401.577 325.296 404.734 325.296C407.721 325.296 410.388 324.613 412.734 323.248C415.124 321.84 416.98 319.899 418.302 317.424C419.668 314.907 420.35 312.005 420.35 308.72Z" fill="#7864F3"/>
<path d="M447.288 290.672C451.341 290.672 454.669 291.931 457.272 294.448C459.875 296.965 461.176 300.763 461.176 305.84V326H459.96V305.712C459.96 301.189 458.829 297.755 456.568 295.408C454.307 293.019 451.213 291.824 447.288 291.824C443.192 291.824 439.907 293.168 437.432 295.856C434.957 298.501 433.72 302.427 433.72 307.632V326H432.44V291.44H433.72V300.528C434.531 297.328 436.152 294.896 438.584 293.232C441.016 291.525 443.917 290.672 447.288 290.672Z" fill="#7864F3"/>
<path d="M470.152 308.72C470.152 305.093 470.856 301.957 472.264 299.312C473.672 296.624 475.656 294.576 478.216 293.168C480.776 291.717 483.699 290.992 486.984 290.992C490.952 290.992 494.302 292.037 497.033 294.128C499.806 296.176 501.662 298.8 502.6 302V291.44H503.816V326H502.6V315.44C501.662 318.64 499.806 321.285 497.033 323.376C494.302 325.424 490.952 326.448 486.984 326.448C483.699 326.448 480.776 325.744 478.216 324.336C475.656 322.885 473.672 320.837 472.264 318.192C470.856 315.504 470.152 312.347 470.152 308.72ZM502.6 308.72C502.6 305.435 501.918 302.555 500.552 300.08C499.23 297.563 497.374 295.621 494.984 294.256C492.638 292.848 489.971 292.144 486.984 292.144C483.827 292.144 481.075 292.805 478.729 294.128C476.425 295.451 474.633 297.371 473.353 299.888C472.073 302.363 471.432 305.307 471.432 308.72C471.432 312.133 472.073 315.099 473.353 317.616C474.633 320.091 476.425 321.989 478.729 323.312C481.075 324.635 483.827 325.296 486.984 325.296C489.971 325.296 492.638 324.613 494.984 323.248C497.374 321.84 499.23 319.899 500.552 317.424C501.918 314.907 502.6 312.005 502.6 308.72Z" fill="#7864F3"/>
<path d="M517.442 292.72V316.912C517.442 319.003 517.677 320.603 518.146 321.712C518.615 322.821 519.362 323.611 520.386 324.08C521.41 324.507 522.839 324.72 524.674 324.72H528.322V326H524.546C521.559 326 519.405 325.317 518.082 323.952C516.802 322.587 516.162 320.24 516.162 316.912V292.72H510.53V291.44H516.162V282.608H517.442V291.44H528.322V292.72H517.442Z" fill="#7864F3"/>
<path d="M551.163 290.672C555.216 290.672 558.544 291.931 561.147 294.448C563.75 296.965 565.051 300.763 565.051 305.84V326H563.835V305.712C563.835 301.189 562.704 297.755 560.443 295.408C558.182 293.019 555.088 291.824 551.163 291.824C547.067 291.824 543.782 293.168 541.307 295.856C538.832 298.501 537.595 302.427 537.595 307.632V326H536.315V278.64H537.595V300.528C538.406 297.328 540.027 294.896 542.459 293.232C544.891 291.525 547.792 290.672 551.163 290.672Z" fill="#7864F3"/>
<path d="M604.044 291.44V326H602.763V316.592C601.995 319.877 600.374 322.373 597.899 324.08C595.467 325.787 592.566 326.64 589.195 326.64C585.142 326.64 581.814 325.381 579.211 322.864C576.609 320.347 575.307 316.549 575.307 311.472V291.44H576.523V311.6C576.523 316.123 577.654 319.579 579.916 321.968C582.177 324.315 585.27 325.488 589.195 325.488C593.291 325.488 596.577 324.165 599.052 321.52C601.526 318.832 602.763 314.885 602.763 309.68V291.44H604.044Z" fill="#7864F3"/>
<path d="M629.788 290.672C633.841 290.672 637.169 291.931 639.772 294.448C642.375 296.965 643.676 300.763 643.676 305.84V326H642.46V305.712C642.46 301.189 641.329 297.755 639.068 295.408C636.807 293.019 633.713 291.824 629.788 291.824C625.692 291.824 622.407 293.168 619.932 295.856C617.457 298.501 616.22 302.427 616.22 307.632V326H614.94V291.44H616.22V300.528C617.031 297.328 618.652 294.896 621.084 293.232C623.516 291.525 626.417 290.672 629.788 290.672Z" fill="#7864F3"/>
<path d="M669.484 290.992C673.452 290.992 676.802 292.016 679.532 294.064C682.306 296.112 684.162 298.715 685.101 301.872V291.44H686.317V327.28C686.317 330.48 685.613 333.253 684.205 335.6C682.797 337.989 680.919 339.803 678.573 341.04C676.269 342.277 673.751 342.896 671.021 342.896C666.839 342.896 663.362 341.872 660.589 339.824C657.858 337.819 655.98 335.088 654.956 331.632H656.237C657.218 334.747 658.946 337.2 661.42 338.992C663.938 340.827 667.138 341.744 671.021 341.744C673.666 341.744 676.055 341.147 678.188 339.952C680.322 338.757 682.007 337.072 683.245 334.896C684.482 332.72 685.101 330.181 685.101 327.28V315.504C684.162 318.704 682.306 321.328 679.532 323.376C676.802 325.424 673.452 326.448 669.484 326.448C666.199 326.448 663.276 325.744 660.716 324.336C658.156 322.885 656.173 320.837 654.765 318.192C653.357 315.504 652.653 312.347 652.653 308.72C652.653 305.093 653.357 301.957 654.765 299.312C656.173 296.624 658.156 294.576 660.716 293.168C663.276 291.717 666.199 290.992 669.484 290.992ZM685.101 308.72C685.101 305.435 684.418 302.555 683.052 300.08C681.73 297.563 679.874 295.621 677.484 294.256C675.138 292.848 672.471 292.144 669.484 292.144C666.327 292.144 663.575 292.805 661.229 294.128C658.925 295.451 657.132 297.371 655.852 299.888C654.572 302.363 653.932 305.307 653.932 308.72C653.932 312.133 654.572 315.099 655.852 317.616C657.132 320.091 658.925 321.989 661.229 323.312C663.575 324.635 666.327 325.296 669.484 325.296C672.471 325.296 675.138 324.613 677.484 323.248C679.874 321.84 681.73 319.899 683.052 317.424C684.418 314.907 685.101 312.005 685.101 308.72Z" fill="#7864F3"/>
<path d="M712.23 325.296C716.113 325.296 719.377 324.315 722.022 322.352C724.667 320.389 726.267 317.701 726.822 314.288H728.102C727.505 317.915 725.798 320.859 722.982 323.12C720.209 325.339 716.625 326.448 712.23 326.448C709.03 326.448 706.171 325.744 703.654 324.336C701.137 322.928 699.153 320.88 697.702 318.192C696.294 315.504 695.59 312.347 695.59 308.72C695.59 305.093 696.294 301.936 697.702 299.248C699.153 296.56 701.137 294.512 703.654 293.104C706.171 291.696 709.03 290.992 712.23 290.992C715.601 290.992 718.481 291.717 720.87 293.168C723.259 294.576 725.051 296.411 726.246 298.672C727.483 300.933 728.102 303.323 728.102 305.84C728.102 307.376 728.081 308.528 728.038 309.296H696.87C696.913 312.837 697.638 315.803 699.046 318.192C700.497 320.581 702.374 322.373 704.678 323.568C706.982 324.72 709.499 325.296 712.23 325.296ZM712.23 292.144C709.499 292.144 706.982 292.741 704.678 293.936C702.374 295.088 700.497 296.859 699.046 299.248C697.638 301.637 696.913 304.603 696.87 308.144H726.95C727.163 304.603 726.587 301.637 725.222 299.248C723.899 296.859 722.065 295.088 719.718 293.936C717.414 292.741 714.918 292.144 712.23 292.144Z" fill="#7864F3"/>
</g>
<defs>
<filter id="filter0_b_221_803" x="-3.99609" y="-3.24219" width="736.098" height="350.138" filterUnits="userSpaceOnUse" color-interpolation-filters="sRGB">
<feFlood flood-opacity="0" result="BackgroundImageFix"/>
<feGaussianBlur in="BackgroundImageFix" stdDeviation="2"/>
<feComposite in2="SourceAlpha" operator="in" result="effect1_backgroundBlur_221_803"/>
<feBlend mode="normal" in="SourceGraphic" in2="effect1_backgroundBlur_221_803" result="shape"/>
</filter>
</defs>
</svg>
